<svg height="496pt" viewBox="0 0 496 496" width="496pt" xmlns="http://www.w3.org/2000/svg" xmlns:xlink="http://www.w3.org/1999/xlink"><path fill="#000000" d="m280 263.945312h-16v-16h16zm-64 0h16v-16h-16zm266.425781 136h13.574219v16h-18.425781l-21.574219-14.382812-24 16-24-16-21.574219 14.382812h-22.953125c-5.570312 9.832032-15.921875 16-27.464844 16-11.542968 0-21.902343-6.167968-27.464843-16h-22.414063l-14.730468-7.359374-23.382813 7.792968-23.382813-7.792968-14.730468 7.359374h-22.421875c-5.570313 9.832032-15.921875 16-27.464844 16s-21.902344-6.167968-27.464844-16h-14.949219l-21.578124-14.382812-24 16-24-16-21.574219 14.382812h-26.449219v-16h21.574219l26.425781-17.613281 24 16 24-16 26.425781 17.613281h3.359375l-17.777344-44.445312c-2.664062-6.640625-4.007812-13.640625-4.007812-20.800781v-6.753907c0-30.871093 25.121094-56 56-56 1.375 0 2.726562.113282 4.078125.210938-3.277344-4.738281-6.132813-9.753906-8.628906-14.992188-22.328125 2.695313-43.929688 10-63.335938 21.640626l-8.234375-13.722657c20.015625-12.007812 42.152344-19.824219 65.074219-23.207031l-9.945313-24.855469c-23.398437-6.03125-47.464843-9.082031-71.945312-9.082031h-3.0625v-16h3.070312c21.457032 0 42.609376 2.257812 63.3125 6.65625l-13.605468-27.207031c-8.363282-16.71875-12.777344-35.441407-12.777344-54.128907v-.832031c0-40.558593 20.152344-78.207031 53.894531-100.703125 23.898438-15.945312 54.578125-20.070312 81.875-10.960937l8.230469 2.746093 8.222656-2.746093c27.304688-9.09375 57.984375-4.976563 81.882813 10.960937 33.742187 22.496094 53.894531 60.144532 53.894531 100.703125v.832031c0 18.6875-4.414062 37.410157-12.777344 54.128907l-13.605468 27.207031c20.703124-4.398438 41.847656-6.65625 63.3125-6.65625h3.070312v16h-3.070312c-24.480469 0-48.546876 3.050781-71.945313 9.082031l-9.945313 24.855469c22.921876 3.375 45.066407 11.199219 65.074219 23.207031l-8.234375 13.722657c-19.398437-11.640626-41.007812-18.945313-63.335937-21.640626-2.496094 5.230469-5.351563 10.246094-8.632813 14.992188 1.355469-.097656 2.707032-.210938 4.082032-.210938 30.878906 0 56 25.128907 56 56v6.761719c0 7.160157-1.34375 14.160157-4.007813 20.800781l-17.785156 44.445313h11.367187l26.425782-17.613281 24 16 24-16zm-146.425781-112c-22.054688 0-40 17.945313-40 40v6.761719c0 5.121094.960938 10.113281 2.855469 14.855469l7.351562 18.382812h59.578125l7.351563-18.382812c1.894531-4.75 2.855469-9.742188 2.855469-14.855469v-6.761719c.007812-22.054687-17.9375-40-39.992188-40zm-120-48c-4.40625 0-8 3.585938-8 8 0 22.058594 17.945312 40 40 40s40-17.941406 40-40c0-4.414062-3.59375-8-8-8zm4.128906 56.496094c4.039063 11.839844 12.03125 23.503906 27.871094 23.503906s23.839844-11.664062 27.871094-23.503906c-8.214844 4.746094-17.71875 7.503906-27.871094 7.503906s-19.65625-2.757812-27.871094-7.503906zm155.871094-180c0-18.78125-5.113281-36.765625-14.199219-52.496094h-12.710937c-7.664063 0-15.160156 1.449219-22.265625 4.289063-15.617188 6.242187-27.960938 18.855469-33.863281 34.601563-8.601563 22.933593-12.960938 46.976562-12.960938 71.464843v49.644531c13.230469 0 24 10.769532 24 24 0 10.617188-3.023438 20.511719-8.167969 28.976563-.191406 3.167969-.585937 6.59375-1.191406 10.144531 11.734375-8 21.503906-18.664062 28.519531-31.054687-.609375-.007813-1.199218-.066407-1.808594-.066407h-9.351562v-16h9.351562c3.046876 0 6.082032.152344 9.105469.3125l6.933594-17.34375c-7.488281 2.511719-14.917969 5.25-22.246094 8.386719l-6.304687-14.707031c11.945312-5.117188 24.136718-9.359375 36.480468-12.886719.472657-1.023437.878907-2.070312 1.382813-3.078125l18.191406-36.394531c7.257813-14.503906 11.089844-30.75 11.089844-46.96875v-.824219zm-230.457031-68.496094h1.378906c9.710937 0 19.199219 1.832032 28.207031 5.433594 19.78125 7.910156 35.421875 23.886719 42.902344 43.847656 9.273438 24.726563 13.976562 50.664063 13.976562 77.074219v49.644531h32v-49.644531c0-26.410156 4.703126-52.347656 13.976563-77.082031 7.480469-19.953125 23.121094-35.929688 42.902344-43.839844 9-3.601562 18.496093-5.433594 28.203125-5.433594h1.375c-6.144532-7.117187-13.191406-13.542968-21.234375-18.894531-19.832031-13.222656-45.285157-16.648437-67.941407-9.105469l-13.289062 4.433594-13.289062-4.433594c-22.65625-7.542968-48.101563-4.125-67.941407 9.105469-8.035156 5.351563-15.089843 11.777344-21.226562 18.894531zm38.457031 192v16h-9.351562c-.609376 0-1.199219.058594-1.808594.066407 7.015625 12.398437 16.785156 23.054687 28.519531 31.054687-.605469-3.550781-1-6.976562-1.191406-10.144531-5.152344-8.464844-8.167969-18.359375-8.167969-28.976563 0-13.230468 10.769531-24 24-24v-49.644531c0-24.488281-4.359375-48.523437-12.960938-71.457031-5.902343-15.753906-18.246093-28.367188-33.855468-34.609375-7.113282-2.839844-14.597656-4.289063-22.261719-4.289063h-12.714844c-9.085937 15.730469-14.199219 33.714844-14.199219 52.496094v.832032c0 16.21875 3.832032 32.464843 11.089844 46.96875l18.191406 36.394531c.503907 1.007812.910157 2.054687 1.382813 3.078125 12.351563 3.535156 24.535156 7.769531 36.480469 12.886718l-6.304688 14.707032c-7.320312-3.136719-14.75-5.882813-22.246094-8.394532l6.933594 17.34375c3.03125-.160156 6.066406-.3125 9.105469-.3125zm-61.144531 109.617188 7.351562 18.382812h59.570313l7.351562-18.382812c1.894532-4.75 2.855469-9.742188 2.855469-14.855469v-6.761719c0-22.054687-17.945313-40-40-40s-40 17.945313-40 40v6.761719c.015625 5.113281.976563 10.105469 2.871094 14.855469zm29.144531 64.082031v-29.699219h-15.382812l8.871093 22.167969c1.304688 3.265625 3.648438 5.808594 6.511719 7.53125zm31.382812-29.699219h-15.382812v29.699219c2.863281-1.722656 5.207031-4.257812 6.511719-7.523437zm106.503907 16h11.898437l-17.777344-44.445312c-2.664062-6.640625-4.007812-13.640625-4.007812-20.800781v-6.753907c0-2.46875.214844-4.878906.527344-7.269531-7.359375 8.96875-17.832032 15.269531-32.527344 15.269531s-25.167969-6.300781-32.527344-15.269531c.3125 2.382813.527344 4.800781.527344 7.269531v6.761719c0 7.160157-1.34375 14.160157-4.007812 20.800781l-17.785157 44.445313h11.90625l17.269531-8.636719 24.617188 8.207032 24.617188-8.207032zm38.113281 13.699219v-29.699219h-15.382812l8.871093 22.167969c1.304688 3.265625 3.648438 5.808594 6.511719 7.53125zm31.382812-29.699219h-15.382812v29.699219c2.863281-1.722656 5.207031-4.257812 6.511719-7.523437zm-327.382812 56h-16v16h16zm32 40h-16v16h16zm56-40h-16v16h16zm64 16v16h16v-16zm296 0h16v-16h-16zm-32 40h16v-16h-16zm-40-56h-16v16h16zm-96 16v16h16v-16zm32-312c0 13.234376-10.769531 24-24 24s-24-10.765624-24-24c0-13.230468 10.769531-24 24-24s24 10.769532 24 24zm-16 0c0-4.414062-3.59375-8-8-8s-8 3.585938-8 8c0 4.417969 3.59375 8 8 8s8-3.582031 8-8zm-152 24c-13.230469 0-24-10.765624-24-24 0-13.230468 10.769531-24 24-24s24 10.769532 24 24c0 13.234376-10.769531 24-24 24zm8-24c0-4.414062-3.59375-8-8-8s-8 3.585938-8 8c0 4.417969 3.59375 8 8 8s8-3.582031 8-8zm0 0" fill="url(#a)"/></svg>